<svg width="25" height="24" viewBox="0 0 25 24" fill="none" xmlns="http://www.w3.org/2000/svg">
<path d="M18.4854 12.556C18.4761 10.9575 19.2003 9.75283 20.6628 8.86455C19.8448 7.69268 18.6073 7.04814 16.9761 6.92393C15.4315 6.80205 13.7417 7.82393 13.1229 7.82393C12.469 7.82393 10.9737 6.96611 9.79717 6.96611C7.36904 7.00361 4.78857 8.90205 4.78857 12.7645C4.78857 13.906 4.99717 15.0849 5.41436 16.2989C5.97217 17.8974 7.98311 21.8138 10.0808 21.7505C11.1776 21.7247 11.9534 20.9724 13.3808 20.9724C14.7659 20.9724 15.4831 21.7505 16.7065 21.7505C18.8229 21.72 20.6417 18.1599 21.1714 16.5567C18.3331 15.2185 18.4854 12.638 18.4854 12.556ZM16.0222 5.40752C17.2104 3.99658 17.1026 2.71221 17.0675 2.25049C16.0175 2.31143 14.8034 2.96533 14.112 3.76924C13.3503 4.63174 12.9026 5.69814 12.9987 6.90049C14.1331 6.98721 15.169 6.40361 16.0222 5.40752Z" fill="#313131"/>
</svg>
