<svg width="25" height="24" viewBox="0 0 25 24" fill="none" xmlns="http://www.w3.org/2000/svg">
<path d="M22.7746 10.042H21.9691V10.0005H12.9691V14.0005H18.6206C17.7961 16.329 15.5806 18.0005 12.9691 18.0005C9.65562 18.0005 6.96912 15.314 6.96912 12.0005C6.96912 8.68705 9.65562 6.00055 12.9691 6.00055C14.4986 6.00055 15.8901 6.57755 16.9496 7.52005L19.7781 4.69155C17.9921 3.02705 15.6031 2.00055 12.9691 2.00055C7.44662 2.00055 2.96912 6.47805 2.96912 12.0005C2.96912 17.523 7.44662 22.0005 12.9691 22.0005C18.4916 22.0005 22.9691 17.523 22.9691 12.0005C22.9691 11.33 22.9001 10.6755 22.7746 10.042Z" fill="#FFC107"/>
<path d="M4.12134 7.34605L7.40684 9.75555C8.29584 7.55455 10.4488 6.00055 12.9683 6.00055C14.4978 6.00055 15.8893 6.57755 16.9488 7.52005L19.7773 4.69155C17.9913 3.02705 15.6023 2.00055 12.9683 2.00055C9.12734 2.00055 5.79634 4.16905 4.12134 7.34605Z" fill="#FF3D00"/>
<path d="M12.9694 22.0006C15.5524 22.0006 17.8994 21.0121 19.6739 19.4046L16.5789 16.7856C15.5412 17.5748 14.2731 18.0017 12.9694 18.0006C10.3684 18.0006 8.15989 16.3421 7.32789 14.0276L4.06689 16.5401C5.72189 19.7786 9.08289 22.0006 12.9694 22.0006Z" fill="#4CAF50"/>
<path d="M22.7744 10.0419H21.9689V10.0004H12.9689V14.0004H18.6204C18.226 15.1086 17.5155 16.077 16.5769 16.7859L16.5784 16.7849L19.6734 19.4039C19.4544 19.6029 22.9689 17.0004 22.9689 12.0004C22.9689 11.3299 22.8999 10.6754 22.7744 10.0419Z" fill="#1976D2"/>
</svg>
